<?xml version="1.0" standalone="no"?>
<!DOCTYPE svg PUBLIC "-//W3C//DTD SVG 20010904//EN"
 "http://www.w3.org/TR/2001/REC-SVG-20010904/DTD/svg10.dtd">
<svg version="1.0" xmlns="http://www.w3.org/2000/svg"
 width="242.000000pt" height="208.000000pt" viewBox="0 0 242.000000 208.000000"
 preserveAspectRatio="xMidYMid meet">

<g transform="translate(0.000000,208.000000) scale(0.100000,-0.100000)"
fill="#000000" stroke="none">
<path d="M2240 2026 c-70 -20 -124 -51 -178 -104 -67 -66 -94 -122 -132 -282
-17 -74 -37 -155 -44 -180 l-12 -45 -861 -5 c-829 -5 -862 -6 -882 -24 -12
-11 -21 -26 -21 -35 0 -31 262 -801 280 -823 l18 -23 626 -3 c344 -1 626 -6
626 -10 -1 -4 -9 -41 -18 -82 l-18 -75 -554 -5 -555 -5 0 -25 0 -25 579 0 578
0 164 695 c90 382 173 724 184 760 40 131 144 221 281 244 68 11 74 14 74 37
0 22 -4 24 -45 26 -25 1 -65 -4 -90 -11z"/>
</g>
</svg>
